# xmcd
#
# Track frame offsets: 
#        150
#        15880
#        36220
#        55580
#        68597
#        87100
#        105910
#        122207
#        143072
#        162085
#        183282
#        203425
#        228034
#
# Disc length: 3284 seconds
#
# Revision: 0
# Processed by: cddbd v1.5.1PL0 Copyright (c) Steve Scherf et al.
# Submitted via: ExactAudioCopy v0.95a3
#
DISCID=8c0cd20d
DTITLE=W.C. Spencer - Bluescat
DYEAR=1996
DGENRE=Blues
TTITLE0=Crosscut Saw
TTITLE1=No Plase to go
TTITLE2=Unseen Eye
TTITLE3=Same Old Blues
TTITLE4=Blues All day Long
TTITLE5=Baby please don't go
TTITLE6=I just want to make love to you
TTITLE7=Is this goodbye
TTITLE8=I Can't believe
TTITLE9=My time after a while
TTITLE10=Little Red Rooster
TTITLE11=The Problem
TTITLE12=Got Love if you want it
EXTD=
EXTT0=
EXTT1=
EXTT2=
EXTT3=
EXTT4=
EXTT5=
EXTT6=
EXTT7=
EXTT8=
EXTT9=
EXTT10=
EXTT11=
EXTT12=
PLAYORDER=
